<?xml version="1.0" encoding="UTF-8"?>
<svg id="Layer_1" xmlns="http://www.w3.org/2000/svg" version="1.1" viewBox="0 0 595.276 841.89">
  <!-- Generator: Adobe Illustrator 30.1.0, SVG Export Plug-In . SVG Version: 2.1.1 Build 136)  -->
  <path d="M474.04,472.953c0,39.256-33.054,71.018-73.871,71.018s-73.778-31.762-73.778-71.018,32.993-70.986,73.778-70.986,73.871,31.825,73.871,70.986" fill="#ec7d4d"/>
  <path d="M473.247,472.953c0,18.767-7.596,36.403-21.386,49.659-13.798,13.264-32.156,20.567-51.693,20.567-40.244,0-72.985-31.504-72.985-70.226s32.741-70.193,72.985-70.193c19.528,0,37.887,7.311,51.693,20.586,13.79,13.261,21.386,30.878,21.386,49.607ZM400.169,401.175c-41.118,0-74.57,32.2-74.57,71.778s33.453,71.811,74.57,71.811c19.949,0,38.697-7.462,52.792-21.008,14.105-13.558,21.872-31.602,21.872-50.803s-7.767-37.188-21.872-50.75c-14.105-13.56-32.853-21.028-52.792-21.028Z" fill="#fff"/>
  <path d="M551.975,470.874c-26.917,26.726-42.715,36.044-42.715,36.044,29.986-101.866-14.956-144.012-14.956-144.012,7.535-3.117,13.965-17.472,13.965-17.472-5.357,1.008-24.613-1.071-41.728-15.424-17.11-14.448-49.226-20.589-49.226-20.589,42.764-17.436,38.48-69.943,38.48-69.943,5.357,3.119,12.892,1.038,12.892,1.038,0,0-5.393-11.27-8.608-18.478-3.15-7.206-21.382-26.787-21.382-26.787-27.783-30.849-69.539-15.426-69.539-15.426,6.43-4.123,33.184-74.038,27.795-128.49C391.629-3.252,356.397.871,356.397.871c-19.354,2.079-34.306,25.718-20.394,40.104,13.932,14.45,26.726-3.085,26.726-3.085-1.073,64.784-99.479,149.112-99.479,149.112-1.122-29.778-21.384-29.778-21.384-29.778-31.012-3.115-43.386,26.759-43.386,26.759-15.161-10.132-23.574-7.048-23.574-7.048,9.679,14.517-3.245,57.119-11.914,85.142-8.669,28.059-14.044,38.382-18.382,102.874-4.284,64.361,33.528,114.237,33.528,114.237-33.528,12.437-7.582,33.217-7.582,33.217-28.088,10.392-15.164,36.403-15.164,36.403-10.782-13.574-37.797-18.736-37.797-18.736l2.142,10.39c-44.259-4.188-72.38,44.652-72.38,44.652-12.957-13.51-25.946,5.194-25.946,5.194-2.142,19.711,18.38,29.063,46.499,10.36,28.057-18.638,36.663,0,36.663,0-10.715,6.298-13.961,24.971-13.961,24.971,39.939-23.867,100.468,9.384,123.132,20.75,22.764,11.459,49.716,17.665,49.716,17.665-11.9,19.776-3.245,36.338-3.245,36.338,0,0,25.944-21.788,70.172-25.913,44.357-4.19,76.797-11.465,123.268-32.213,46.466-20.752,115.631-76.863,115.631-76.863-1.154-70.628-17.309-94.528-17.309-94.528M387.309,263.117s4.32-23.64-34.192-23.64c0,0,34.192-38.057,62.053,7.208l6.43-4.089s17.098,32.859-10.685,48.287c0,0-7.482-15.428-23.605-5.135,0,0-11.721,7.208-.975,24.682,0,0-26.787,1.036-39.614,10.292,0,0,1.106-21.561-28.868-31.855,0,0,36.371-35.979,69.458-25.751M215.109,451.325s-34.259-62.672,12.841-112.061c0,0-23.524,60.689-12.841,112.061M243.992,318.71s-5.34-6.17-22.487-1.103c0,0,28.868-82.252,94.173-94.593,0,0-36.42,54.52-34.26,68.972,0,0-28.899,13.282-37.425,26.724M249.334,419.439s17.177-104.853,63.141-104.853c0,0-7.454,15.424,6.401,18.476,0,0-48.093,26.726-69.542,86.377M491.122,497.664s-14.968-4.158-20.293,7.145c0,0-8.604,13.412,13.928,21.626,0,0-44.971,45.267-119.919,23.672,0,0-3.182,7.208,2.207,11.333,0,0-70.609-8.248-69.589-86.442,0,0,1.073-64.78,71.702-78.192,0,0,3.211-14.322-8.506-19.451,0,0,74.814-43.256,123.004,35.948,0,0,19.256,58.61,7.466,84.361" fill="#8a3a3b"/>
  <g>
    <path d="M551.416,470.311c-26.515,26.328-42.402,35.83-42.558,35.924l1.162.906c15.548-52.814,10.626-89.335,3.761-110.672-3.896-12.109-8.821-20.731-12.268-25.83-1.955-2.896-3.656-4.993-4.739-6.243-.616-.711-1.103-1.231-1.402-1.542-.138-.143-.268-.274-.384-.389-.014-.014-.038-.018-.051-.035l-.331,1.208c7.738-3.201,14.117-17.283,14.385-17.881l.62-1.384-1.489.28c-4.991.939-23.995-.931-41.071-15.252-17.07-14.414-49.264-20.699-49.588-20.76l.15,1.513c22.388-9.128,31.794-27.895,35.741-42.031,4.263-15.266,3.241-28.579,3.231-28.711l-1.189.749c5.58,3.25,13.18,1.206,13.501,1.118l.912-.252-.408-.854c-.055-.113-5.426-11.343-8.6-18.459-3.164-7.24-20.776-26.201-21.524-27.005-14.54-16.143-32.916-19.534-45.769-19.534-13.894,0-24.519,3.866-24.625,3.905l.703,1.411c3.556-2.281,11.904-21.241,18.665-45.829,4.873-17.724,12.587-52.128,9.49-83.407-1.995-20.464-8.358-35.156-18.913-43.665C367.968-1.166,356.775.029,356.305.084c-10.971,1.179-21.294,9.333-25.097,19.831-2.888,7.972-1.349,15.849,4.225,21.611,4.091,4.244,8.508,6.237,13.129,5.919,8.509-.583,14.554-8.741,14.806-9.088l-1.433-.481c-1.055,63.69-98.221,147.683-99.203,148.524l1.309.572c-1.138-30.193-21.966-30.542-22.177-30.542l.079.004c-31.237-3.139-44.071,26.94-44.197,27.244l1.174-.356c-15.321-10.238-23.929-7.264-24.289-7.133l-.945.346.559.838c9.643,14.464-3.913,58.285-12.012,84.467-.001.001-2.84,9.012-2.84,9.012-7.061,22.168-11.726,36.814-15.577,94.043-4.253,63.917,33.307,114.268,33.687,114.77l.356-1.223c-10.598,3.932-16.491,9.14-17.516,15.483-1.599,9.909,9.251,18.726,9.713,19.098l.221-1.363c-8.652,3.2-14.375,8.193-17.012,14.84-4.321,10.894,1.178,22.184,1.413,22.66l1.331-.847c-10.84-13.648-37.154-18.807-38.27-19.021l-1.164-.223.24,1.162,2.142,10.39.85-.949c-23.155-2.193-41.821,10.191-53.401,20.963-12.506,11.634-19.669,23.959-19.74,24.081l1.259-.153c-3.564-3.717-7.481-5.434-11.643-5.107-8.688.687-15.251,10-15.526,10.396l-.115.167-.022.201c-.882,8.12,2.024,14.853,7.975,18.47,9.385,5.702,24.245,2.949,39.751-7.364,10.493-6.97,19.382-9.494,26.419-7.503,6.565,1.859,9.061,7.123,9.086,7.176l.318-1.016c-10.907,6.409-14.206,24.741-14.341,25.517l-.296,1.703,1.483-.886c37.411-22.357,94.152,6.456,118.381,18.761l3.989,2.018c22.587,11.37,49.623,17.667,49.894,17.728l-.502-1.181c-11.99,19.927-3.357,36.944-3.269,37.115l.457.874.756-.634c.257-.217,26.288-21.678,69.735-25.733,41.146-3.885,74.548-10.415,123.518-32.278,46.029-20.557,115.115-76.409,115.808-76.97l.299-.244-.006-.384c-1.144-70.059-16.781-93.976-17.446-94.96l-.536-.794-.679.675ZM568.785,564.786h0c-.691.561-69.616,56.283-115.454,76.755-48.771,21.774-82.038,28.277-123.02,32.148-43.965,4.101-70.346,25.875-70.607,26.094l1.213.24c-.084-.161-8.294-16.424,3.222-35.562l.563-.937-1.065-.244c-.268-.063-27.123-6.318-49.537-17.6-.001-.002-3.983-2.016-3.983-2.016-24.462-12.422-81.75-41.512-119.912-18.708l1.188.817c.032-.183,3.31-18.386,13.581-24.424l.62-.364-.302-.652c-.112-.242-2.833-5.978-10.092-8.033-7.503-2.126-16.833.467-27.729,7.706-14.98,9.966-29.205,12.705-38.05,7.33-5.482-3.333-8.046-9.35-7.221-16.944l-.137.368c.063-.092,6.418-9.1,14.354-9.722,3.663-.287,7.151,1.268,10.369,4.623l.732.764.527-.916c.279-.484,28.384-48.35,71.618-44.259l1.068.102-.216-1.051-2.142-10.39-.925.939c.267.051,26.852,5.265,37.325,18.452l1.331-.847c-.055-.11-5.42-11.152-1.355-21.38,2.466-6.204,7.878-10.89,16.084-13.926l1.314-.486-1.093-.876c-.106-.085-10.594-8.618-9.138-17.612.928-5.734,6.479-10.526,16.5-14.243l1.002-.372-.645-.851c-.377-.496-37.583-50.394-33.368-113.705,3.837-57.037,8.478-71.609,15.505-93.668l2.843-9.025c8.183-26.451,21.879-70.723,11.817-85.815l-.386,1.185c.077-.027,8.293-2.774,22.86,6.962l.804.536.37-.892c.122-.294,12.525-29.292,42.574-26.274l.04.004h.04c.795.003,19.513.399,20.592,29.016l.062,1.641,1.247-1.069c.246-.21,24.933-21.457,49.426-50.351,22.652-26.722,49.771-65.65,50.329-99.35l.041-2.502-1.473,2.021c-.059.079-5.875,7.914-13.643,8.442-4.127.279-8.122-1.551-11.872-5.44-5.212-5.388-6.588-12.48-3.873-19.969,3.603-9.95,13.383-17.679,23.782-18.796.116-.013,11.051-1.158,21.382,7.191,10.193,8.236,16.348,22.555,18.301,42.562,5.479,55.371-21.945,124.225-27.435,127.746l.703,1.411c.413-.152,41.583-14.87,68.675,15.212.191.204,18.185,19.574,21.246,26.575,3.184,7.14,8.565,18.39,8.618,18.502l.504-1.107c-.071.019-7.283,1.951-12.282-.959l-1.313-.765.124,1.514c.043.519,3.731,52.135-37.988,69.145l-2.479,1.011,2.63.502c.319.061,32.111,6.271,48.862,20.417,17.517,14.69,37.198,16.574,42.386,15.597l-.87-1.103c-.063.14-6.389,14.104-13.544,17.064l-1.136.47.896.84c.445.418,44.221,43.054,14.739,143.21l-.567,1.926,1.729-1.02c.159-.093,16.192-9.675,42.871-36.163l-1.215-.119c.159.238,16.038,24.616,17.174,94.096l.293-.628Z" fill="#fff"/>
    <path d="M388.09,263.259c.057-.312,1.333-7.727-4.245-14.418-5.619-6.74-15.958-10.157-30.728-10.157l.589,1.323c.146-.163,14.769-16.175,32.225-14.592,10.693.969,20.303,8.265,28.563,21.685l.421.685.679-.432,6.43-4.089-1.128-.303c.683,1.314,16.413,32.357-10.366,47.228l1.097.348c-.132-.273-3.317-6.7-10.055-8.605-4.489-1.269-9.431-.21-14.69,3.147-.156.097-4.131,2.595-5.458,8.158-1.221,5.128.203,11.052,4.235,17.608l.644-1.208c-1.103.043-27.175,1.153-40.047,10.442l1.256.684c.01-.222.786-22.277-29.403-32.646l.299,1.314c.362-.357,36.42-35.525,68.667-25.557l.853.263.161-.879ZM317.594,289.618c29.073,9.985,28.346,30.856,28.334,31.065l-.083,1.651,1.339-.967c12.483-9.008,38.915-10.133,39.181-10.143l1.355-.053-.711-1.155c-3.802-6.185-5.161-11.706-4.042-16.409,1.177-4.931,4.723-7.16,4.757-7.182,4.867-3.107,9.374-4.104,13.404-2.969,6.05,1.702,9.045,7.715,9.073,7.775l.368.752.73-.405c28.132-15.622,11.179-49.01,11.004-49.346l-.398-.767-.73.464-6.43,4.089,1.1.253c-8.537-13.872-18.557-21.42-29.779-22.434-18.252-1.649-32.922,14.426-33.538,15.112l-1.189,1.322h1.778c14.278,0,24.206,3.226,29.51,9.587,5.109,6.126,3.914,13.048,3.902,13.117l1.014-.615c-33.156-10.25-69.882,25.581-70.248,25.944l-.908.899,1.207.414Z" fill="#fff"/>
    <path d="M215.805,450.945h0c-.34-.622-33.428-62.744,12.719-111.133l-1.314-.834c-.236.609-23.485,61.498-12.878,112.509l1.472-.542ZM227.376,338.718c-24.544,25.737-26.76,55.097-24.296,75.194,2.665,21.74,11.247,37.636,11.333,37.793l1.472-.542c-10.511-50.546,12.57-111.008,12.804-111.613l-1.314-.833Z" fill="#fff"/>
    <path d="M244.591,318.191c-.232-.267-5.875-6.496-23.311-1.344l.972,1.022c.287-.818,29.475-81.963,93.572-94.076l-.805-1.219c-1.496,2.236-36.567,54.941-34.386,69.529l.453-.837c-1.189.547-29.21,13.535-37.764,27.02l1.269-.094ZM282.201,291.869c-2.091-13.988,33.773-67.871,34.134-68.415l1.051-1.57-1.855.351c-33.998,6.425-57.963,31.96-72.08,52.251-15.265,21.941-22.623,42.652-22.695,42.859l-.513,1.461,1.486-.439c16.332-4.825,21.617.81,21.667.868l.699.78c.005.005.566-.88.566-.88,8.305-13.093,36.8-26.297,37.087-26.429l.54-.249-.087-.588Z" fill="#fff"/>
    <path d="M250.116,419.567h0c.171-1.041,17.592-104.188,62.358-104.188l-.713-1.138c-.16.329-3.863,8.128-1.01,14.001,1.384,2.855,4.06,4.737,7.954,5.594l-.215-1.467c-.482.268-48.599,27.556-69.902,86.802l1.528.396ZM319.047,332.288c-3.394-.748-5.704-2.34-6.866-4.734-2.52-5.18.973-12.549,1.008-12.623l.549-1.137h-1.262c-19.151,0-36.283,18.304-49.547,52.935-9.953,25.988-14.334,52.319-14.376,52.582l1.528.396c21.104-58.691,68.703-85.686,69.182-85.952l1.829-1.017-2.044-.45Z" fill="#fff"/>
    <path d="M491.333,496.899c-.154-.043-15.676-4.2-21.221,7.572l.051-.092c-.124.193-2.987,4.753-1.106,10.325,1.748,5.182,6.94,9.38,15.428,12.475l-.291-1.305c-.447.449-45.531,44.678-119.137,23.469l-.664-.191-.281.632c-.035.079-3.367,7.832,2.451,12.284l.573-1.419c-.699-.081-69.886-9.089-68.888-85.643.011-.638,1.901-64.291,71.058-77.422l.512-.098.114-.508c.032-.15,3.213-15.022-8.964-20.351l.079,1.413c.742-.429,74.709-41.938,121.931,35.674l-.077-.165c.193.583,19.025,58.61,7.499,83.784l.933-.435ZM484.332,412.89c-11.069-18.192-24.481-31.422-39.864-39.323-12.323-6.329-25.922-9.267-40.415-8.732-24.639.91-43.609,11.724-43.798,11.833l-1.358.784,1.437.629c10.969,4.802,8.173,17.993,8.049,18.552l.626-.607c-36.799,6.988-54.515,28.081-62.896,44.545-9.074,17.829-9.448,34.249-9.45,34.413-.531,40.749,18.609,62.306,34.76,73.214,17.482,11.809,35.351,14.007,35.529,14.03l2.861.333-2.288-1.752c-4.838-3.703-1.993-10.317-1.963-10.382l-.945.441c38.937,11.219,69.667,4.143,88.59-3.768,20.52-8.579,31.998-19.994,32.112-20.108l.874-.88-1.164-.425c-8-2.916-12.867-6.773-14.463-11.467-1.646-4.842.904-8.945.931-8.986l.026-.043s.022-.047.022-.047c4.981-10.575,19.22-6.759,19.364-6.718l.65.181.282-.616c11.784-25.737-6.643-82.532-7.433-84.938l-.029-.086-.049-.078Z" fill="#fff"/>
  </g>
  <path d="M50.311,748.024c1.429,1.756,4.32,5.227,6.269,6.629,2.012,1.329,4.627,1.947,7.24,2.142v5.227h-30.914v-5.129c1.689-.13,6.397.126,6.397-1.756,0-.874-2.109-3.02-2.762-3.861l-7.921-10.071-6.397,4.418v5.166c0,4.446,0,5.548,6.397,6.104v5.129H.793v-5.129c1.979-.098,4.739-.362,5.909-1.301,1.362-1.036,1.152-3.442,1.152-4.804v-20.069c0-4.385-.079-5.877-7.061-6.169v-5.068h27.828v5.068c-6.397.683-6.397,1.426-6.397,6.169v7.661l12.794-9.449c.813-.614,3.329-2.012,3.329-3.052,0-1.329-2.906-1.329-4.237-1.329h-1.203v-5.068h27.6v5.068c-8.248.423-14.028,4.316-19.775,8.474l-1.817,1.365,11.396,13.636Z" fill="#8a3a3b"/>
  <path d="M49.696,748.524c2.802,3.444,4.962,5.722,6.421,6.773,1.954,1.29,4.517,2.054,7.645,2.288l-.734-.791v5.227l.792-.792h-30.914l.793.792v-5.129l-.732.791c.271-.02.639-.031,1.064-.045,2.415-.069,6.065-.173,6.065-2.502,0-.888-.941-2.04-2.271-3.57-.274-.317-.511-.589-.657-.776-.004-.004-7.925-10.075-7.925-10.075l-.46-.585-.613.423-6.397,4.418-.342.236v5.582c0,4.871.303,6.302,7.12,6.895l-.723-.791v5.129l.792-.792H.793l.792.792v-5.129l-.754.792c3.292-.163,5.315-.632,6.367-1.475,1.514-1.15,1.478-3.434,1.454-4.946l-.005-.475v-20.069c0-4.718-.3-6.647-7.821-6.962l.759.793v-5.068l-.792.792h27.828l-.792-.792v5.068l.708-.788c-6.866.734-7.105,1.841-7.105,6.958v9.232l1.264-.933,12.794-9.449c.158-.12.392-.276.664-.455,1.634-1.087,2.986-2.081,2.986-3.235,0-2.122-3.397-2.122-5.029-2.122h-1.203l.793.793v-5.068l-.793.792h27.6l-.793-.792v5.068l.752-.793c-8.24.423-14.022,4.156-20.198,8.624-.012.008-1.829,1.374-1.829,1.374l-.668.502.535.64s11.396,13.635,11.39,13.627ZM39.392,735.022l1.817-1.365c5.956-4.31,11.531-7.917,19.339-8.315l.752-.039v-6.614h-29.185v6.653h1.996c2.954,0,3.384.406,3.444.53,0-.002-.001-.002-.001-.004,0,0,.001.004.001.01,0-.01.001-.016.001-.016-.091.473-1.739,1.571-2.28,1.93-.293.195-.546.362-.735.506.006-.006-12.788,9.443-12.788,9.443l1.264.638v-7.661c0-4.595,0-4.773,5.689-5.381l.708-.075v-6.574H0v6.621l.759.033c6.303.264,6.303,1.144,6.303,5.377v20.069l.005.5c.018,1.193.047,2.993-.845,3.674-.536.429-1.904.963-5.468,1.138l-.754.039v6.675h29.413v-6.649l-.724-.063c-5.674-.494-5.674-.949-5.674-5.314v-5.166l-.343.652,6.397-4.418-1.073-.163,7.921,10.071c.169.22.418.506.709.839.542.626,1.814,2.089,1.884,2.552,0,0,0-.006,0-.02,0,.522-1.523.831-4.526.919-.445.012-.83.022-1.14.047l-.732.057v6.655h32.5v-6.755l-.734-.055c-2.854-.213-5.164-.89-6.863-2.014-1.319-.949-3.376-3.131-6.091-6.466-.006-.008-11.402-13.644-11.402-13.644l-.132,1.142Z" fill="#fff"/>
  <path d="M117.724,751.954c3.182,3.182,4.369,4.576,10.163,4.938v5.129h-18.899l-17.47-18.346h-4.284v7.21c0,4.251.585,5.645,6.72,5.909l1.104.098v5.129h-29.224v-5.129l.648-.098c6.267-.264,6.365-1.398,6.365-5.881v-20.488c0-4.121.098-5.584-6.007-5.812l-1.006-.065v-5.068h30.654c5.031,0,10.795.032,15.584,1.398,5.651,1.524,9.484,5.097,9.484,9.839,0,6.04-6.072,10.583-13.542,11.656l9.709,9.579ZM90.348,737.668c3.28,0,7.112.098,10.118-.91,2.938-1.101,5.34-2.987,5.34-5.491,0-1.752-1.914-3.536-3.67-4.674-2.207-1.231-5.424-1.459-7.986-1.459-2.209,0-5.131.195-6.267,1.004-.811.52-.648,1.853-.648,2.629v8.901h3.113Z" fill="#8a3a3b"/>
  <g>
    <path d="M117.163,752.515l.337.337c2.965,2.973,4.454,4.465,10.336,4.83l-.743-.791v5.129l.792-.792h-18.899l.574.246-17.47-18.346-.235-.246h-5.416v8.003c0,4.786,1.081,6.425,7.478,6.702-.036-.002,1.068.096,1.068.096l-.722-.791v5.129l.793-.792h-29.224l.793.792v-5.129l-.675.784.648-.098-.084.008c6.799-.287,7.123-1.833,7.123-6.674v-20.679c.002-4.381-.257-6.169-6.77-6.413.021.002-.985-.063-.985-.063l.742.791v-5.068l-.793.792h30.654c4.709,0,10.57,0,15.367,1.368,5.582,1.506,8.909,4.898,8.909,9.077,0,5.314-5.29,9.785-12.862,10.872l-1.581.227,1.137,1.122s9.71,9.579,9.705,9.575ZM108.128,743.159c8.373-1.203,14.222-6.318,14.222-12.441,0-4.94-3.765-8.905-10.07-10.605-4.999-1.425-10.982-1.425-15.79-1.425h-31.447v6.604l.742.047,1.006.065c5.266.197,5.266.904,5.265,4.83v20.679c0,4.3,0,4.853-5.606,5.088l-.043.002-.042.006-.648.098-.675.102v6.605h30.809v-6.647l-.722-.065-1.103-.098c-5.761-.248-5.998-1.266-5.998-5.119v-7.21l-.793.793h4.284l-.574-.246,17.47,18.346.235.246h20.031v-6.667l-.743-.045c-5.285-.331-6.382-1.431-9.313-4.369l-.338-.339s-9.714-9.584-9.714-9.584l-.444,1.349Z" fill="#fff"/>
    <path d="M90.348,738.46l.798.002c3.134.006,6.685.016,9.572-.953,3.747-1.404,5.881-3.676,5.881-6.243,0-2.461-2.82-4.554-4.032-5.338-1.925-1.077-4.664-1.587-8.417-1.587-2.332,0-5.391.199-6.727,1.15-1.045.671-1.01,2.046-.987,2.955.003.118.006.228.006.321v9.693h3.906ZM88.027,737.668v-8.901c0-.114-.003-.234-.006-.362-.013-.52-.036-1.392.29-1.601.785-.557,2.957-.878,5.839-.878,3.476,0,5.961.445,7.6,1.359,1.555,1.01,3.263,2.607,3.263,3.981,0,2.654-3.375,4.204-4.826,4.749-2.614.876-6.027.868-9.039.86h-3.914l.793.793Z" fill="#fff"/>
  </g>
  <path d="M180.882,750.913c2.109,4.028,2.256,5.068,7.86,5.881l.941.098v5.129h-29.647v-5.129c1.752-.195,6.751-.098,6.751-2.048,0-.91-.776-2.467-1.087-3.41l-2.256-4.576h-17.438l-2.272,4.576c-.423.91-.992,2.109-.992,2.926,0,2.239,4.467,2.239,6.397,2.434l.829.098v5.129h-25.133v-5.129c7.173-.557,8.732-3.995,11.169-8.478l15.783-28.933h12.583l16.511,31.433ZM160.813,741.435l-6.072-12.144-6.169,12.144h12.241Z" fill="#8a3a3b"/>
  <g>
    <path d="M180.18,751.281l.415.801c1.878,3.636,2.658,4.717,8.034,5.497.032.004.973.102.973.102l-.711-.788v5.129l.793-.792h-29.647l.793.792v-5.129l-.705.788c.284-.032.674-.057,1.123-.085,2.522-.156,6.333-.394,6.333-2.752,0-.791-.411-1.821-.774-2.729-.137-.345-.267-.671-.353-.929l-.017-.053-.024-.049-2.256-4.576-.218-.443h-18.422l-.218.441-2.272,4.576c-.009.018-.048.102-.048.102-.457.984-1.026,2.209-1.026,3.176,0,2.682,3.92,2.977,6.263,3.154.311.022.606.045.847.069-.013-.002.816.096.816.096l-.7-.786v5.129l.792-.792h-25.133l.793.792v-5.129l-.732.791c7.305-.567,9.25-4.166,11.503-8.334l.302-.557s15.782-28.931,15.782-28.931l-.696.412h12.583l-.702-.425,16.511,31.433ZM164.371,718.688h-13.053l-.226.412-15.783,28.933s-.303.561-.303.561c-2.281,4.219-3.789,7.007-10.231,7.507l-.731.057v6.655h26.718v-6.627l-.7-.081-.829-.097c-.274-.029-.578-.051-.901-.075-1.556-.118-4.796-.36-4.796-1.573,0-.618.529-1.756.879-2.51l.04-.083c-.009.018,2.263-4.558,2.263-4.558l-.71.441h17.438l-.711-.443,2.256,4.576-.042-.102c.101.305.239.652.386,1.02.279.699.662,1.656.662,2.142,0,.575-1.631.969-4.847,1.17-.47.029-.877.055-1.199.089l-.705.079v6.631h31.232v-6.637l-.711-.073-.941-.098c-4.775-.693-5.128-1.376-6.82-4.652l-.42-.809-16.511-31.433-.223-.425h-.479Z" fill="#fff"/>
    <path d="M161.522,741.082l-6.072-12.144-.703-1.408-.713,1.402-6.17,12.144-.585,1.152h14.817l-.574-1.146ZM149.279,741.795l6.169-12.144-1.416-.006,6.072,12.144.709-1.146h-12.241l.707,1.152Z" fill="#fff"/>
  </g>
  <path d="M236.249,734.388c-5.361-5.747-11.124-9.254-20.459-9.254-7.015,0-6.592,1.621-6.592,6.364v5.064h2.402c2.242,0,5.149.065,6.365-1.626,1.236-1.524,1.366-3.438,1.691-5.194h6.04v20.264h-6.04c-.943-6.109-1.528-7.633-10.457-7.307v8.088c0,1.199-.081,3.475.943,4.544,1.138,1.199,4.32,1.463,6.104,1.561h.91v5.129h-29.356v-5.129c6.799-.293,7.015-1.723,7.015-6.104v-20.069c0-4.385-.215-5.779-7.015-6.169v-5.068h46.515l7.665,12.798-5.731,2.109Z" fill="#8a3a3b"/>
  <path d="M236.829,733.848c-6.298-6.753-12.394-9.506-21.039-9.506-3.516,0-5.283.398-6.303,1.425-1.105,1.111-1.096,2.731-1.085,4.972l.003.76v5.857h3.434c2.388.002,5.359.006,6.769-1.955,1.143-1.408,1.43-3.148,1.684-4.68.047-.288.092-.561.142-.833l-.779.648h6.04l-.793-.793v20.264l.793-.793h-6.04l.783.671c-1.044-6.761-2.208-8.307-11.269-7.978l-.764.029v9.096c-.007,1.353-.016,3.617,1.163,4.848,1.292,1.362,4.404,1.683,6.633,1.805h.954l-.792-.792v5.129l.792-.792h-29.356l.793.792v-5.129l-.758.792c7.137-.307,7.773-2.036,7.773-6.897v-20.069c0-4.924-.602-6.549-7.762-6.96l.747.791v-5.068l-.793.792h46.515l-.68-.386,7.665,12.798.405-1.15-5.731,2.109.854.203ZM242.66,731.872l-7.665-12.798-.231-.386h-47.757v6.608l.747.045c6.268.357,6.268,1.323,6.268,5.377v20.069c0,4.074,0,5.044-6.257,5.312l-.758.032v6.682h30.941v-6.714h-1.703c-3.727-.205-5.068-.827-5.529-1.315-.739-.77-.731-2.707-.725-3.745v-8.34l-.764.792c8.572-.313,8.779,1.022,9.646,6.637l.104.67h7.512v-21.849h-7.491l-.12.648c-.054.287-.102.579-.148.864-.243,1.469-.472,2.857-1.379,3.975-.962,1.337-3.483,1.335-5.508,1.333h-2.643l.793.792v-5.064l-.002-.768c-.01-1.929-.017-3.203.624-3.847.658-.663,2.256-.957,5.178-.957,8.156,0,13.915,2.609,19.879,9.002l.36.386.494-.183,5.731-2.109.898-.331-.492-.819Z" fill="#fff"/>
  <path d="M262.679,726.593c.065-1.166.065-1.496-1.508-1.496-3.036,0-6.285,1.561-8.458,3.121-2.211,1.589-3.735,3.536-5.686,5.974l-5.942-1.853,6.592-12.859h44.487l6.43,12.859-5.912,1.853c-1.851-2.439-3.408-4.385-5.682-5.974-2.158-1.561-5.389-3.121-8.443-3.121-1.557,0-1.557.329-1.494,1.496v24.194c0,1.199-.128,3.572.878,4.544,1.136,1.199,3.993,1.463,5.814,1.561h.941v5.129h-29.647v-5.129h1.006c1.754-.098,4.611-.362,5.749-1.561,1.036-.971.874-3.345.874-4.544v-24.194Z" fill="#8a3a3b"/>
  <path d="M263.47,726.638c.04-.709.074-1.323-.379-1.8-.418-.443-1.045-.532-1.92-.532-4.053,0-7.852,2.504-8.92,3.27-2.226,1.599-3.737,3.489-5.649,5.881l-.193.242.854-.26-5.942-1.853.469,1.118,6.592-12.859-.705.431h44.487l-.709-.439,6.43,12.859.473-1.11-5.911,1.853.868.276c-1.878-2.475-3.502-4.497-5.859-6.145-1.05-.76-4.83-3.264-8.897-3.264-.866,0-1.487.087-1.904.528-.453.478-.42,1.091-.381,1.802-.001-.043-.001,24.152-.001,24.152l-.003.362c-.013,1.449-.034,3.636,1.123,4.753,1.273,1.343,4.049,1.66,6.322,1.782h.984l-.793-.792v5.129l.793-.792h-29.647l.792.792v-5.129l-.792.792h1.006c2.113-.116,5.015-.429,6.324-1.806,1.144-1.071,1.115-3.233,1.095-4.664l-.004-.427s0-24.194-.001-24.15ZM261.886,750.787l.004.447c.013,1.012.038,2.894-.628,3.518-.714.752-2.469,1.193-5.25,1.347.044,0-.962,0-.962,0h-.793v6.714h31.232v-6.714h-1.733c-2.779-.15-4.555-.593-5.239-1.313-.69-.669-.672-2.589-.662-3.621l.002-.378v-24.194c-.014-.282-.034-.646-.003-.746-.012.041-.061.098-.098.116.024-.012.18-.073.802-.073,3.592,0,7.015,2.274,7.979,2.971,2.182,1.526,3.662,3.371,5.515,5.812l.336.443.531-.167,5.911-1.853.889-.278-.417-.831-6.43-12.859-.219-.439h-45.461l-.221.431-6.592,12.859-.43.837.899.28,5.942,1.853.516.163.338-.423.194-.244c1.836-2.296,3.287-4.111,5.335-5.582.971-.697,4.416-2.973,7.995-2.973.634,0,.792.063.817.075-.037-.018-.085-.077-.098-.116.03.1.01.461-.003.699-.001.045-.001,24.239-.001,24.239Z" fill="#fff"/>
  <path d="M348.244,750.913c2.081,4.028,2.211,5.068,7.828,5.881l.862.098v5.129h-29.567v-5.129c1.752-.195,6.82-.098,6.82-2.048,0-.91-.862-2.467-1.17-3.41l-2.207-4.576h-17.439l-2.305,4.576c-.488.91-.975,2.109-.975,2.926,0,2.239,4.515,2.239,6.446,2.434l.829.098v5.129h-25.134v-5.129c7.146-.557,8.702-3.995,11.104-8.478l15.814-28.933h12.534l16.562,31.433ZM328.114,741.435l-6.023-12.144-6.251,12.144h12.274Z" fill="#8a3a3b"/>
  <g>
    <path d="M347.539,751.277l.417.813c1.847,3.629,2.619,4.71,8.002,5.489.024.004.886.102.886.102l-.703-.788v5.129l.792-.792h-29.567l.793.792v-5.129l-.705.788c.287-.032.679-.057,1.134-.085,2.697-.167,6.391-.394,6.391-2.752,0-.772-.404-1.717-.797-2.63-.167-.384-.321-.748-.412-1.026l-.016-.051-.025-.047-2.207-4.576-.215-.449h-18.425l-.22.437-2.304,4.576c-.313.581-1.061,2.105-1.061,3.282,0,2.682,3.946,2.977,6.304,3.154.315.022.612.045.856.069-.014-.002.815.096.815.096l-.699-.786v5.129l.793-.792h-25.134l.792.792v-5.129l-.73.791c7.301-.569,9.23-4.188,11.465-8.376l.276-.518c-.004.006,15.81-28.927,15.81-28.927l-.695.412h12.534l-.701-.423s16.562,31.433,16.558,31.427ZM331.682,718.688h-13.003l-.226.412-15.814,28.933c-.004.006-.281.524-.281.524-2.262,4.241-3.756,7.041-10.191,7.543l-.731.057v6.655h26.719v-6.627l-.699-.081-.829-.097c-.276-.029-.585-.053-.91-.077-1.569-.116-4.836-.36-4.836-1.571,0-.551.345-1.553.882-2.552.008-.018,2.312-4.595,2.312-4.595l-.707.437h17.439l-.713-.449,2.207,4.576-.041-.098c.114.348.282.742.463,1.16.297.693.669,1.559.669,2.004,0,.575-1.65.967-4.903,1.168-.476.031-.888.055-1.211.092l-.705.079v6.631h31.152v-6.629l-.703-.081-.862-.098c-4.786-.693-5.131-1.372-6.793-4.635l-.419-.821c-.004-.006-16.566-31.439-16.566-31.439l-.224-.423h-.478Z" fill="#fff"/>
    <path d="M328.825,741.084l-6.023-12.144-.699-1.406-.717,1.394-6.251,12.144-.595,1.156h14.853l-.567-1.144ZM316.545,741.799l6.251-12.144-1.416-.012,6.023,12.144.711-1.144h-12.274l.705,1.156Z" fill="#fff"/>
  </g>
  <path d="M397.604,743.996v-13.278c0-4.414-.097-5.779-7.015-6.169v-5.068h21.788v5.068c-6.933.293-7.177,1.658-7.177,6.169v31.303h-10.063l-25.491-32.924v21.691c0,1.199-.098,3.572.809,4.544,1.17,1.101,4.158,1.431,6.401,1.561v5.129h-21.727v-5.129c2.048-.098,4.804-.362,6.011-1.301,1.362-1.036,1.134-3.442,1.134-4.804v-20.069c0-1.301.195-3.54-.78-4.58-1.134-1.167-4.186-1.459-6.365-1.589v-5.068h23.8l18.675,24.515Z" fill="#8a3a3b"/>
  <path d="M398.396,743.996v-13.278c0-4.847-.376-6.543-7.763-6.962l.748.793v-5.068l-.793.792h21.788l-.792-.792v5.068l.76-.793c-7.322.309-7.937,1.955-7.937,6.962v31.303l.792-.792h-10.063l.626.307-25.491-32.924-1.419-1.833v24.009l-.002.317c-.008,1.453-.022,3.646,1.024,4.767,1.097,1.036,3.29,1.601,6.934,1.813l-.746-.792v5.129l.792-.792h-21.727l.793.792v-5.129l-.754.792c3.323-.158,5.377-.626,6.46-1.467,1.514-1.152,1.473-3.422,1.445-4.924-.002-.181-.006-.354-.006-.506v-20.069c0-.166.004-.356.008-.555.026-1.449.063-3.432-1.002-4.568-1.298-1.335-4.215-1.678-6.897-1.837l.746.791v-5.068l-.793.792h23.8l-.63-.313,18.675,24.515,1.422,1.869v-2.349ZM378.929,718.688h-24.592v6.608l.746.043c1.189.071,4.81.289,5.842,1.351.616.656.585,2.333.563,3.444-.002.207-.006.402-.006.583v20.069c0,.167.002.345.006.534.022,1.183.053,2.967-.827,3.639-.551.427-1.957.967-5.57,1.138l-.754.037v6.678h23.312v-6.669l-.746-.043c-3.94-.23-5.385-.86-5.905-1.347-.579-.624-.567-2.66-.561-3.639l.002-.327v-21.691l-1.418.486,25.491,32.924.238.307h11.244v-32.095c0-4.125,0-5.107,6.417-5.377l.76-.033v-6.621h-23.373v6.611l.748.043c6.267.351,6.267,1.217,6.267,5.377v13.278l1.422-.48-18.675-24.515-.238-.313h-.392Z" fill="#fff"/>
  <path d="M450.081,740.102h26.462v5.162l-1.17.098c-5.649.65-5.227,2.178-5.227,6.011v11.132h-8.897l-1.914-3.568c-2.308,1.04-4.58,2.174-6.722,2.727-2.825.841-6.889,1.427-9.974,1.427-16.753,0-26.137-10.096-26.137-22.337,0-12.729,10.75-22.439,27.665-22.439,4.515,0,10.1,1.199,13.965,2.89l1.203-1.723h5.259l5.032,14.257-5.877,1.557c-3.41-5.194-10.457-10.616-18.573-10.616-10.425,0-12.989,10.258-12.989,16.623,0,6.917,3.182,15.46,13.965,15.46,5.194,0,11.103-3.052,11.103-7.373,0-3.377-3.15-4.125-7.173-4.125v-5.162Z" fill="#8a3a3b"/>
  <path d="M450.081,740.895h26.462l-.793-.793v5.162l.727-.791-1.17.098c-5.747.66-5.986,2.434-5.958,6.06l.004.742v11.132l.793-.792h-8.897l.699.418-1.914-3.568-.352-.656s-.673.307-.673.307l-1.211.553c-1.894.87-3.684,1.691-5.385,2.13-2.782.829-6.789,1.402-9.775,1.402-15.159,0-25.345-8.659-25.345-21.544,0-12.745,11.051-21.646,26.873-21.646,4.302,0,9.787,1.134,13.648,2.823l.595.262.372-.534,1.203-1.723-.65.339h5.259l-.748-.528,5.032,14.257.545-1.03-5.877,1.556.866.331c-3.585-5.462-10.925-10.974-19.236-10.974-10.173,0-13.782,9.382-13.782,17.415,0,7.858,3.877,16.253,14.757,16.253,5.627,0,11.896-3.353,11.896-8.165,0-4.918-5.787-4.918-7.966-4.918l.792.793v-5.162l-.792.793ZM450.081,746.057c5.607,0,6.381,1.601,6.381,3.333,0,3.766-5.444,6.58-10.311,6.58-12.221,0-13.172-11.227-13.172-14.668,0-2.644.589-15.83,12.197-15.83,7.72,0,14.558,5.151,17.911,10.258l.313.478.553-.146,5.877-1.556.831-.22-.287-.811-5.031-14.257-.187-.528h-6.232l-.238.339-1.203,1.723.967-.272c-4.042-1.77-9.781-2.957-14.282-2.957-16.755,0-28.458,9.553-28.458,23.231,0,11.514,8.328,23.129,26.93,23.129,3.17,0,7.269-.585,10.199-1.459,1.808-.465,3.747-1.355,5.623-2.217l1.199-.547-1.024-.349,1.914,3.568.226.419h10.163v-11.924l-.004-.754c-.025-3.186-.031-3.944,4.529-4.468-.026.002,1.144-.096,1.144-.096l.727-.061v-6.684h-28.047v6.746h.793Z" fill="#fff"/>
  <path d="M530.35,750.913c2.109,4.028,2.272,5.068,7.889,5.881l.878.098v5.129h-29.58v-5.129c1.703-.195,6.718-.098,6.718-2.048,0-.91-.841-2.467-1.134-3.373l-2.174-4.613h-17.472l-2.255,4.576c-.455.91-.992,2.109-.992,2.926,0,2.239,4.45,2.268,6.365,2.434l.809.098v5.129h-25.032v-5.129c7.145-.557,8.669-3.995,11.071-8.478l15.846-28.933h12.567l16.497,31.433ZM510.248,741.464l-6.007-12.172-6.251,12.172h12.258Z" fill="#8a3a3b"/>
  <g>
    <path d="M529.646,751.281l.4.77c1.93,3.735,2.66,4.743,8.078,5.527.026.004.904.102.904.102l-.705-.788v5.129l.793-.792h-29.58l.793.792v-5.129l-.703.788c.278-.032.666-.057,1.114-.085,2.512-.159,6.308-.398,6.308-2.752,0-.774-.398-1.719-.784-2.634-.154-.372-.303-.721-.388-.984l-.014-.049-.022-.045-2.175-4.613-.215-.455h-18.468l-.217.443-2.255,4.576c-.742,1.483-1.073,2.493-1.073,3.276,0,2.731,3.995,3.007,6.383,3.172.258.018.5.035.705.053-.026-.004.782.093.782.093l-.697-.786v5.129l.793-.792h-25.032l.792.792v-5.129l-.731.791c7.273-.567,9.187-4.162,11.404-8.324l.305-.571c-.004.006,15.842-28.927,15.842-28.927l-.695.412h12.567l-.701-.425s16.497,31.433,16.495,31.433ZM513.853,718.688h-13.036l-.226.412-15.846,28.933c-.004.006-.311.579-.311.579-2.242,4.208-3.723,6.988-10.126,7.488l-.732.057v6.655h26.617v-6.625l-.697-.083-.809-.097c-.246-.022-.496-.041-.76-.057-1.593-.112-4.908-.339-4.908-1.591,0-.502.305-1.368.909-2.573.002-.004,2.258-4.58,2.258-4.58l-.711.443h17.472l-.717-.455,2.174,4.613-.037-.093c.106.327.266.707.435,1.112.278.66.66,1.565.66,2.018,0,.573-1.622.967-4.822,1.168-.469.031-.876.055-1.193.092l-.703.081v6.629h31.165v-6.631l-.705-.079-.878-.098c-4.808-.695-5.164-1.382-6.87-4.682l-.402-.778s-16.499-31.433-16.499-31.433l-.222-.425h-.479Z" fill="#fff"/>
    <path d="M510.959,741.113l-6.007-12.172-.697-1.413-.719,1.402-6.251,12.172-.593,1.154h14.832l-.565-1.144ZM498.695,741.826l6.251-12.172-1.416-.01,6.007,12.173.711-1.144h-12.258l.705,1.154Z" fill="#fff"/>
  </g>
  <path d="M579.71,743.996v-13.278c0-4.385-.098-5.779-6.95-6.137v-5.1h21.723v5.1c-6.95.26-7.129,1.626-7.129,6.137v31.303h-10.083l-25.458-32.924v21.691c0,1.231-.098,3.572.845,4.544,1.053,1.101,4.125,1.431,6.267,1.561v5.129h-21.626v-5.129c1.947-.098,4.771-.362,6.023-1.301,1.317-1.008,1.085-3.41,1.085-4.804v-20.069c0-1.301.163-3.54-.809-4.58-1.154-1.167-4.158-1.459-6.3-1.557v-5.1h23.8l18.61,24.515Z" fill="#8a3a3b"/>
  <path d="M580.502,743.996v-13.278c0-4.932-.597-6.557-7.702-6.929l.752.792v-5.1l-.792.792h21.723l-.792-.792v5.1l.762-.792c-7.279.272-7.891,1.916-7.891,6.929v31.303l.792-.792h-10.083l.628.307-25.458-32.924-1.42-1.835v24.012l-.002.315c-.008,1.455-.022,3.656,1.071,4.782.959,1.004,3.117,1.577,6.787,1.799l-.744-.791v5.129l.792-.792h-21.626l.793.792v-5.129l-.752.792c3.3-.166,5.352-.63,6.458-1.459,1.479-1.132,1.437-3.4,1.41-4.899-.004-.193-.008-.376-.008-.539v-20.069l.004-.486c.02-1.471.049-3.485-1.026-4.635-1.063-1.075-3.231-1.644-6.842-1.808l.756.792v-5.1l-.793.792h23.8l-.632-.313,18.61,24.515,1.425,1.875v-2.355ZM561.099,718.688h-24.592v6.651l.756.035c3.863.175,5.271.815,5.773,1.321.622.668.6,2.382.583,3.515l-.004.508v20.069c0,.179.004.368.006.569.024,1.252.057,2.965-.78,3.605-.557.419-1.983.959-5.582,1.138l-.752.039v6.675h23.211v-6.667l-.744-.045c-4.142-.252-5.375-.935-5.743-1.319-.644-.664-.634-2.619-.628-3.67l.002-.325v-21.691l-1.42.486,25.458,32.924.238.307h11.266v-32.095c0-4.227,0-5.107,6.367-5.344l.762-.029v-6.657h-23.308v6.645l.752.041c6.198.323,6.198,1.187,6.198,5.344v13.278l1.425-.48-18.61-24.515-.238-.313h-.394Z" fill="#fff"/>
  <path d="M113.731,807.743l11.427-26.564h26.011v5.068c-2.221.061-5.096.256-6.33,1.264-1.396,1.04-1.103,3.508-1.103,4.934v19.972c0,1.301-.293,3.605.776,4.613,1.073,1.069,4.223,1.426,5.96,1.524h.697v5.129h-29.612v-5.129h.683c1.622-.032,4.479-.39,5.808-1.264,1.365-1.04,1.268-3.475,1.268-4.873v-20.915l-13.831,32.18h-9.191l-13.8-32.664v21.496c0,1.203-.13,3.508.876,4.516,1.073,1.069,4.123,1.426,5.814,1.524h.648v5.129h-22.229v-5.129c6.673-.455,6.869-1.654,6.869-6.137v-19.972c0-4.479-.098-5.779-6.869-6.198v-5.068h25.04l11.089,26.564Z" fill="#8a3a3b"/>
  <path d="M114.46,808.056l11.427-26.564-.729.48h26.011l-.793-.793v5.068l.771-.793c-2.582.071-5.41.297-6.811,1.443-1.504,1.12-1.447,3.316-1.405,4.922.005.226.011.439.011.626v19.972c0,.201-.008.437-.016.687-.048,1.441-.112,3.416,1.041,4.503,1.271,1.266,4.594,1.634,6.459,1.739h.742l-.793-.792v5.129l.793-.792h-29.612l.793.792v-5.129l-.793.792h.683c1.589-.03,4.672-.36,6.244-1.394,1.642-1.25,1.632-3.77,1.626-5.275v-.26s-.001-20.915-.001-20.915l-1.521-.313-13.831,32.18.729-.479h-9.191l.731.484-13.8-32.664-1.523.309v21.496l-.003.368c-.013,1.418-.034,3.562,1.111,4.708,1.289,1.284,4.518,1.65,6.329,1.756h.694l-.792-.792v5.129l.792-.792h-22.229l.793.792v-5.129l-.739.791c6.86-.467,7.607-1.815,7.607-6.927v-19.972c0-4.845-.369-6.541-7.612-6.988l.744.791v-5.068l-.793.793h25.04l-.732-.488,11.089,26.564.72,1.727.74-1.719ZM102.642,780.387h-25.832v6.606l.744.045c6.125.38,6.125,1.148,6.125,5.407v19.972c0,4.176,0,4.928-6.13,5.346l-.739.051v6.661h23.814v-6.714h-1.441c-2.534-.148-4.615-.656-5.254-1.292-.673-.675-.655-2.558-.645-3.572l.002-.382v-21.496l-1.523.309,13.8,32.664.205.484h10.239l.206-.48,13.831-32.18-1.521-.313v21.181c.005,1.211.013,3.237-.956,3.977-1,.654-3.511,1.065-5.343,1.101.016,0-.667,0-.667,0h-.792v6.714h31.197v-6.714h-1.49c-2.624-.148-4.762-.656-5.4-1.292-.649-.614-.595-2.237-.56-3.312.008-.264.016-.512.016-.74v-19.972c0-.207-.005-.431-.011-.667-.032-1.258-.077-2.981.796-3.631,1.199-.979,4.72-1.075,5.878-1.107l.771-.02v-6.633h-27.326l-.206.48-11.427,26.564,1.46.008-11.089-26.564-.203-.488h-.528Z" fill="#fff"/>
  <path d="M205.723,812.645c2.081,4.06,2.193,5.064,7.86,5.877l.878.032v5.129h-29.618v-5.129c1.786-.13,6.755-.032,6.755-1.983,0-.874-.78-2.5-1.103-3.341l-2.176-4.645h-17.503l-2.288,4.645c-.439.813-1.022,2.077-1.022,2.89,0,2.174,4.546,2.174,6.476,2.402l.813.032v5.129h-25.182v-5.129c7.21-.52,8.767-3.959,11.138-8.442l15.814-28.933h12.613l16.546,31.465ZM185.609,803.131l-6.072-12.111-6.222,12.111h12.294Z" fill="#8a3a3b"/>
  <g>
    <path d="M205.018,813.007l.407.805c1.875,3.711,2.591,4.712,8.045,5.495l.042.006.042.002.878.032-.763-.792v5.129l.792-.792h-29.618l.793.792v-5.129l-.735.791c.238-.016.539-.031.889-.047,2.629-.116,6.6-.29,6.6-2.727,0-.843-.5-2.04-.901-3.001-.097-.232-.188-.451-.255-.624-.021-.053-2.198-4.698-2.198-4.698l-.215-.455h-18.499l-.218.443-2.288,4.645c-.496.917-1.103,2.25-1.103,3.239,0,2.581,3.726,2.892,6.192,3.097.366.031.71.061.985.092.061.006.874.038.874.038l-.761-.792v5.129l.792-.792h-25.182l.792.792v-5.129l-.736.791c7.394-.532,9.312-4.174,11.533-8.389l.249-.473c-.005.01,15.809-28.923,15.809-28.923l-.696.412h12.613l-.702-.423s16.545,31.465,16.542,31.457ZM189.177,780.387h-13.084l-.226.412-15.814,28.933c-.005.01-.255.484-.255.484-2.245,4.261-3.729,7.078-10.244,7.547l-.736.053v6.659h26.767v-6.684l-.761-.031-.813-.032c-.239-.03-.597-.061-.976-.091-1.538-.128-4.739-.396-4.739-1.518,0-.492.356-1.455.928-2.514.013-.026,2.301-4.672,2.301-4.672l-.711.443h17.503l-.718-.455,2.176,4.645c.053.14.148.37.25.614.292.697.779,1.866.779,2.39,0,.421-.883.959-5.085,1.144-.362.016-.674.03-.935.049l-.735.053v6.659h31.203v-6.686l-.763-.029-.878-.032.083.008c-4.863-.697-5.205-1.378-6.855-4.641l-.412-.813c-.003-.008-16.549-31.473-16.549-31.473l-.223-.423h-.479Z" fill="#fff"/>
    <path d="M186.317,802.775l-6.072-12.111-.699-1.396-.714,1.39-6.222,12.111-.593,1.154h14.877l-.576-1.148ZM174.02,803.492l6.222-12.111-1.414-.006,6.072,12.111.709-1.148h-12.294l.705,1.154Z" fill="#fff"/>
  </g>
  <path d="M256.867,823.683h-44.292v-5.129c6.69-.455,6.755-1.524,6.755-6.04v-20.069c0-4.544,0-5.617-6.755-6.198v-5.068h28.624v5.068c-2.29.159-5.117.419-6.43,1.329-1.382.975-1.024,3.442-1.024,4.869v20.784c0,3.536-.581,4.706,5.003,4.706,9.352,0,16.659-5.292,20.943-11.363l5.584,2.272-8.409,14.838Z" fill="#8a3a3b"/>
  <path d="M256.867,822.891h-44.292l.792.792v-5.129l-.739.791c7.174-.488,7.493-1.924,7.493-6.83v-20.069c0-4.924-.318-6.373-7.479-6.988l.724.791v-5.068l-.792.793h28.624l-.792-.793v5.068l.738-.791c-2.531.175-5.355.447-6.827,1.467-1.517,1.071-1.44,3.225-1.383,4.798.009.262.018.51.018.723v20.784l-.009.9c-.024,1.483-.043,2.656.777,3.489.796.809,2.158,1.11,5.027,1.11,12.037,0,19.109-8.181,21.591-11.699l-.947.276,5.584,2.272-.391-1.124-8.409,14.838.69-.402ZM265.575,808.111l-5.584-2.272-.583-.238-.364.514c-2.339,3.317-8.999,11.028-20.295,11.028-1.404,0-3.337-.067-3.897-.636-.338-.344-.344-1.045-.322-2.353l.009-.925v-20.784c0-.242-.009-.504-.019-.78-.043-1.211-.103-2.869.708-3.44,1.231-.854,4.471-1.079,6.027-1.187l.738-.051v-6.6h-30.209v6.588l.725.063c6.03.518,6.03.982,6.03,5.407v20.069c0,4.288,0,4.838-6.016,5.249l-.739.051v6.661h45.547l.228-.402,8.409-14.838.445-.784-.836-.339Z" fill="#fff"/>
  <path d="M316.23,812.645c2.142,4.06,2.268,5.064,7.905,5.877l.894.032v5.129h-29.585v-5.129c1.719-.13,6.723-.032,6.723-1.983,0-.874-.748-2.5-1.138-3.341l-2.24-4.645h-17.436l-2.276,4.645c-.356.813-1.004,2.077-1.004,2.89,0,2.174,4.544,2.174,6.525,2.402l.811.032v5.129h-25.166v-5.129c7.145-.52,8.669-3.959,11.138-8.442l15.751-28.933h12.661l16.436,31.465ZM296.193,803.131l-6.009-12.111-6.33,12.111h12.339Z" fill="#8a3a3b"/>
  <g>
    <path d="M315.529,813.015l.425.811c1.922,3.7,2.65,4.7,8.067,5.481l.043.006.043.002.894.032-.764-.792v5.129l.793-.792h-29.585l.793.792v-5.129l-.733.791c.231-.018.531-.031.88-.047,2.618-.118,6.576-.295,6.576-2.727,0-.933-.581-2.317-1.211-3.674-.006-.01-2.245-4.656-2.245-4.656l-.216-.449h-18.428l-.217.443-2.276,4.645c-.014.032-.204.455-.204.455-.392.861-.88,1.933-.88,2.784,0,2.585,3.753,2.894,6.236,3.099.367.031.712.059.991.092.059.004.87.036.87.036l-.761-.792v5.129l.792-.792h-25.166l.792.792v-5.129l-.735.791c7.223-.526,9.074-3.912,11.416-8.198l.358-.652s15.753-28.935,15.753-28.935l-.696.412h12.661l-.703-.425s16.436,31.465,16.438,31.467ZM299.794,780.387h-13.132l-.225.412-15.751,28.933s-.359.654-.359.654c-2.276,4.164-3.779,6.913-10.141,7.377l-.735.053v6.659h26.751v-6.684l-.761-.031-.811-.032c-.245-.03-.603-.059-.983-.091-1.552-.128-4.781-.392-4.781-1.518,0-.508.444-1.482.738-2.128l.2-.445c-.014.033,2.262-4.613,2.262-4.613l-.712.443h17.436l-.714-.449,2.24,4.645c.287.618,1.06,2.286,1.06,2.998,0,.418-.879.955-5.062,1.144-.362.016-.673.028-.929.049l-.733.055v6.657h31.17v-6.686l-.764-.029-.894-.032.085.008c-4.836-.697-5.19-1.378-6.889-4.643l-.429-.819s-16.434-31.463-16.434-31.463l-.222-.425h-.481Z" fill="#fff"/>
    <path d="M296.903,802.779l-6.009-12.111-.692-1.396-.721,1.38-6.33,12.111-.606,1.16h14.926l-.568-1.144ZM284.556,803.498l6.33-12.111-1.412-.016,6.009,12.111.71-1.144h-12.339l.702,1.16Z" fill="#fff"/>
  </g>
  <path d="M352.272,812.417c0,1.301-.146,3.605.845,4.613,1.134,1.069,4.19,1.492,5.942,1.492l.727.032v5.129h-29.287v-5.129c2.191-.032,5.048-.39,6.251-1.264,1.268-1.04,1.17-3.442,1.17-4.776v-6.267l-10.62-12.859c-3.117-3.735-5.357-6.69-11.595-7.141v-5.068h30.949v5.068c-1.427.159-6.3-.134-6.3,1.589l.874,1.622.894,1.235,6.19,8.669,5.743-7.47c.683-.874,2.764-3.243,2.764-4.284,0-1.496-4.58-1.301-5.848-1.362v-5.068h24.812v5.068c-7.307.451-9.807,3.211-13.477,7.596l-10.034,11.884v6.69Z" fill="#8a3a3b"/>
  <path d="M351.479,812.417l-.004.441c-.016,1.516-.041,3.593,1.077,4.729,1.453,1.372,4.889,1.727,6.507,1.727-.035,0,.693.032.693.032l-.758-.792v5.129l.793-.792h-29.287l.792.792v-5.129l-.78.792c1.138-.016,4.989-.169,6.704-1.414,1.516-1.242,1.506-3.69,1.5-5.154l-.002-.264v-6.551l-.181-.22-10.62-12.859s-.337-.406-.337-.406c-2.932-3.521-5.462-6.562-11.813-7.021l.736.791v-5.068l-.793.793h30.949l-.793-.793v5.068l.705-.788c-.26.03-.685.043-1.177.057-2.459.077-5.828.181-5.828,2.321v.199l.096.177.874,1.622.024.047.03.043.894,1.235s6.186,8.665,6.186,8.665l.622.87.652-.848,5.743-7.47c.097-.124.232-.29.388-.482,1.339-1.646,2.54-3.213,2.54-4.286,0-2.059-3.542-2.107-5.885-2.138-.293-.004-.547-.008-.717-.016l.754.793v-5.068l-.792.793h24.812l-.793-.793v5.068l.744-.791c-7.47.461-10.199,3.294-14.036,7.878.002-.004-10.032,11.88-10.032,11.88l-.187.222v6.98ZM352.877,806.24l10.035-11.884c3.782-4.517,6.072-6.895,12.92-7.318l.744-.045v-6.606h-26.397v6.617l.754.037c.199.008.466.012.772.016,3.256.045,4.158.357,4.339.612-.006-.01-.016-.037-.016-.059-.002.4-.738,1.506-2.185,3.284-.163.199-.301.372-.411.512-.004.004-5.747,7.474-5.747,7.474l1.274.022-6.19-8.669s-.898-1.24-.898-1.24l.055.089-.874-1.622.096.376c0-.14.309-.612,4.294-.736.524-.016.978-.03,1.301-.065l.705-.079v-6.57h-32.534v6.598l.736.053c5.676.41,7.787,2.947,10.707,6.456l.335.402s10.618,12.855,10.618,12.855l-.181-.504v6.539c.006,1.181.014,3.156-.88,3.889-.827.6-3.156,1.047-5.761,1.085l-.78.012v6.702h30.872v-6.68l-.758-.035-.727-.032c-1.979,0-4.597-.488-5.432-1.276-.634-.644-.614-2.479-.601-3.576l.004-.459v-6.69l-.187.512Z" fill="#fff"/>
  <path d="M412.475,781.18h4.841l5.422,12.632-5.909,1.691-.683-.78c-1.866-2.048-4.158-4.385-6.852-5.747-2.922-1.528-6.426-2.568-9.998-2.568-3.637,0-8.901,1.04-8.901,4.45,0,3.117,6.072,3.8,8.901,4.353l3.016.451,5.422,1.17c4.06.845,9.031,1.756,12.632,3.508,3.833,1.947,5.816,5.519,5.816,9.092,0,9.807-11.091,15.326-22.894,15.326-4.739,0-10.847-1.101-14.546-3.41l-1.17,2.857h-4.837l-6.791-15.749,6.169-1.524c4.288,6.3,11.319,11.526,21.077,11.526,4.515,0,10.425-1.398,10.425-5.487,0-3.442-5.377-4.06-8.734-4.71l-9.157-1.719c-3.995-.748-9.226-1.687-12.538-3.507-3.828-2.142-5.617-5.584-5.617-9.189,0-8.702,10.23-13.766,20.784-13.766,4.418,0,9.38,1.134,13.136,3.113l.988-2.012Z" fill="#8a3a3b"/>
  <path d="M412.475,781.972h4.841l-.73-.48,5.422,12.632.512-1.075-5.909,1.691.815.24-.683-.78c-2.065-2.266-4.343-4.544-7.092-5.932-2.311-1.209-5.991-2.654-10.356-2.654-4.471,0-9.693,1.374-9.693,5.243,0,3.43,5.109,4.339,8.488,4.938.382.067.742.132,1.053.193.035.006,3.05.457,3.05.457-.049-.01,5.373,1.16,5.373,1.16.004.002,1.223.254,1.223.254,3.784.776,8.07,1.656,11.227,3.192,3.359,1.705,5.371,4.84,5.371,8.378,0,9.541-11.118,14.534-22.101,14.534-4.408,0-10.486-1.018-14.125-3.29l-.799-.498-.356.87-1.17,2.857.734-.492h-4.837l.728.479-6.791-15.749-.536,1.083,6.169-1.524-.847-.323c3.02,4.434,9.856,11.872,21.733,11.872,5.174,0,11.217-1.644,11.217-6.279,0-3.776-4.841-4.658-8.376-5.304l-1-.185s-9.161-1.719-9.161-1.719l-.378-.071c-3.932-.736-8.828-1.65-11.924-3.353-3.355-1.878-5.206-4.895-5.206-8.494,0-8.425,10.301-12.973,19.992-12.973,4.404,0,9.175,1.13,12.766,3.022l.721.38.36-.732.988-2.012-.711.443ZM411.857,782.49c-3.808-2.008-8.856-3.205-13.505-3.205-10.459,0-21.577,5.103-21.577,14.558,0,4.137,2.195,7.74,6.023,9.88,3.325,1.829,8.358,2.77,12.402,3.526l.376.069,9.157,1.719s1.012.189,1.012.189c2.987.545,7.076,1.29,7.076,3.743,0,3.225-4.993,4.694-9.632,4.694-11.148,0-17.58-7.005-20.421-11.181l-.311-.455-.536.132-6.169,1.524-.908.225.372.858,6.791,15.749.205.48h5.891l.201-.492,1.17-2.857-1.154.372c4.176,2.605,10.673,3.53,14.967,3.53,11.77,0,23.686-5.535,23.686-16.119,0-4.086-2.394-7.84-6.249-9.799-3.351-1.63-7.742-2.53-11.615-3.326l-1.213-.25s-5.418-1.168-5.418-1.168c-.049-.01-3.064-.461-3.064-.461-.291-.057-.658-.122-1.045-.191-2.51-.445-7.182-1.276-7.182-3.377,0-2.894,5.304-3.658,8.108-3.658,3.154,0,6.574.88,9.63,2.479,2.53,1.278,4.684,3.436,6.635,5.578-.012-.012.671.768.671.768l.331.378.484-.138,5.909-1.691.866-.248-.356-.827-5.422-12.632-.205-.48h-5.857l-.217.443-.988,2.012,1.081-.352Z" fill="#fff"/>
  <path d="M458.734,823.683h-29.177v-5.129c2.012-.032,4.869-.39,6.104-1.264,1.362-1.04,1.101-3.442,1.101-4.776v-20.069c0-1.329.134-3.568-.858-4.609-1.057-1.138-4.109-1.431-5.8-1.528l-.549-.061v-5.068h29.177v5.129c-2.288.098-5.117.358-6.434,1.268-1.378.975-1.085,3.442-1.085,4.869v20.069c0,1.301-.293,3.508.748,4.516,1.105,1.069,4.219,1.492,6.039,1.524h.732v5.129Z" fill="#8a3a3b"/>
  <path d="M458.734,822.891h-29.177l.793.792v-5.129l-.78.792c.78-.012,4.755-.14,6.549-1.408,1.53-1.168,1.48-3.402,1.445-4.877-.004-.197-.008-.384-.008-.547v-20.069l.004-.421c.014-1.506.032-3.566-1.081-4.735-.927-.998-2.998-1.581-6.328-1.772.043.002-.506-.059-.506-.059l.705.788v-5.068l-.793.793h29.177l-.793-.793v5.129l.758-.793c-3.499.15-5.676.597-6.85,1.408-1.538,1.089-1.479,3.286-1.439,4.889.006.228.012.443.012.632v20.069c0,.205-.008.445-.016.697-.049,1.396-.114,3.304,1.006,4.387,1.697,1.642,6.377,1.744,6.576,1.748h.746l-.793-.792v5.129l.793-.792ZM458.734,817.762h-.732c-2.067-.037-4.694-.534-5.489-1.301-.612-.593-.561-2.097-.524-3.194.01-.268.018-.52.018-.752v-20.069c0-.209-.006-.435-.012-.675-.032-1.246-.077-2.953.762-3.548.886-.61,2.91-.99,6.011-1.122l.758-.032v-6.682h-30.762v6.57l.705.079.549.061c3.932.228,5.019.969,5.306,1.278.677.711.66,2.469.648,3.633l-.002.437v20.069c0,.181.004.376.008.583.029,1.223.067,2.902-.799,3.562-.998.705-3.625,1.069-5.635,1.101l-.78.012v6.702h30.762v-6.714h-.792Z" fill="#fff"/>
  <path d="M513.694,812.645c2.142,4.06,2.268,5.064,7.889,5.877l.89.032v5.162l-29.563-.033v-5.129c1.687-.13,6.783-.032,6.783-1.983,0-.874-.858-2.463-1.199-3.341l-2.207-4.645h-17.488l-2.256,4.645c-.39.813-.976,2.077-.976,2.89,0,2.174,4.434,2.174,6.397,2.402l.878.032v5.129h-25.166v-5.129c7.206-.52,8.734-3.959,11.136-8.442l15.786-28.933h12.562l16.533,31.465ZM493.621,803.131l-6.072-12.111-6.23,12.111h12.302Z" fill="#8a3a3b"/>
  <g>
    <path d="M512.993,813.015l.425.813c1.922,3.698,2.65,4.698,8.051,5.479l.043.006.043.002.89.032-.764-.792v5.162l.792-.793-29.563-.032.793.792v-5.129l-.732.791c.23-.018.533-.031.884-.047,2.64-.118,6.631-.297,6.631-2.727,0-.809-.481-1.884-.908-2.833-.134-.297-.26-.579-.343-.794-.024-.053-2.231-4.698-2.231-4.698l-.213-.453h-18.486l-.217.447-2.256,4.645c-.549,1.142-1.055,2.323-1.055,3.235,0,2.587,3.688,2.896,6.129,3.099.358.031.695.059.969.092.063.004.941.036.941.036l-.764-.792v5.129l.792-.792h-25.166l.792.792v-5.129l-.736.791c7.34-.53,9.258-4.131,11.479-8.299l.299-.559c-.004.006,15.781-28.927,15.781-28.927l-.695.412h12.562l-.701-.425s16.533,31.465,16.533,31.467ZM497.161,780.387h-13.034l-.223.412-15.785,28.933c-.004.006-.303.567-.303.567-2.245,4.213-3.729,6.997-10.195,7.464l-.736.053v6.659h26.751v-6.686l-.764-.029-.878-.032c-.236-.03-.585-.059-.957-.089-1.518-.128-4.676-.392-4.676-1.52,0-.677.652-2.036.898-2.546-.002.002,2.254-4.643,2.254-4.643l-.713.447h17.488l-.715-.453,2.207,4.645c.075.203.209.502.351.819.307.683.77,1.713.77,2.183,0,.417-.888.953-5.117,1.142-.366.016-.681.03-.935.051l-.731.057v6.655h.792l29.563.032.793.002v-6.72l-.764-.029-.89-.032.085.008c-4.82-.697-5.174-1.376-6.873-4.641l-.429-.821s-16.533-31.463-16.533-31.463l-.221-.425h-.48Z" fill="#fff"/>
    <path d="M494.33,802.775l-6.072-12.111-.701-1.396-.713,1.39-6.231,12.111-.593,1.154h14.885l-.575-1.148ZM482.024,803.492l6.23-12.111-1.414-.006,6.072,12.111.709-1.148h-12.302l.705,1.154Z" fill="#fff"/>
  </g>
  <path d="M474.04,472.953c0,39.256-33.054,71.018-73.871,71.018s-73.778-31.762-73.778-71.018,32.993-70.986,73.778-70.986,73.871,31.825,73.871,70.986" fill="#ec7d4d"/>
  <path d="M551.975,470.874c-26.917,26.726-42.715,36.044-42.715,36.044,29.986-101.866-14.956-144.012-14.956-144.012,7.535-3.117,13.965-17.472,13.965-17.472-5.357,1.008-24.613-1.071-41.728-15.424-17.11-14.448-49.226-20.589-49.226-20.589,42.764-17.436,38.48-69.943,38.48-69.943,5.357,3.119,12.892,1.038,12.892,1.038,0,0-5.393-11.27-8.608-18.478-3.15-7.206-21.382-26.787-21.382-26.787-27.783-30.849-69.539-15.426-69.539-15.426,6.43-4.123,33.184-74.038,27.795-128.49C391.629-3.252,356.397.871,356.397.871c-19.354,2.079-34.306,25.718-20.394,40.104,13.932,14.45,26.726-3.085,26.726-3.085-1.073,64.784-99.479,149.112-99.479,149.112-1.122-29.778-21.384-29.778-21.384-29.778-31.012-3.115-43.386,26.759-43.386,26.759-15.161-10.132-23.574-7.048-23.574-7.048,9.679,14.517-3.245,57.119-11.914,85.142-8.669,28.059-14.044,38.382-18.382,102.874-4.284,64.361,33.528,114.237,33.528,114.237-33.528,12.437-7.582,33.217-7.582,33.217-28.088,10.392-15.164,36.403-15.164,36.403-10.782-13.574-37.797-18.736-37.797-18.736l2.142,10.39c-44.259-4.188-72.38,44.652-72.38,44.652-12.957-13.51-25.946,5.194-25.946,5.194-2.142,19.711,18.38,29.063,46.499,10.36,28.057-18.638,36.663,0,36.663,0-10.715,6.298-13.961,24.971-13.961,24.971,39.939-23.867,100.468,9.384,123.132,20.75,22.764,11.459,49.716,17.665,49.716,17.665-11.9,19.776-3.245,36.338-3.245,36.338,0,0,25.944-21.788,70.172-25.913,44.357-4.19,76.797-11.465,123.268-32.213,46.466-20.752,115.631-76.863,115.631-76.863-1.154-70.628-17.309-94.528-17.309-94.528M387.309,263.117s4.32-23.64-34.192-23.64c0,0,34.192-38.057,62.053,7.208l6.43-4.089s17.098,32.859-10.685,48.287c0,0-7.482-15.428-23.605-5.135,0,0-11.721,7.208-.975,24.682,0,0-26.787,1.036-39.614,10.292,0,0,1.106-21.561-28.868-31.855,0,0,36.371-35.979,69.458-25.751M215.109,451.325s-34.259-62.672,12.841-112.061c0,0-23.524,60.689-12.841,112.061M243.992,318.71s-5.34-6.17-22.487-1.103c0,0,28.868-82.252,94.173-94.593,0,0-36.42,54.52-34.26,68.972,0,0-28.899,13.282-37.425,26.724M249.334,419.439s17.177-104.853,63.141-104.853c0,0-7.454,15.424,6.401,18.476,0,0-48.093,26.726-69.542,86.377M491.122,497.664s-14.968-4.158-20.293,7.145c0,0-8.604,13.412,13.928,21.626,0,0-44.971,45.267-119.919,23.672,0,0-3.182,7.208,2.207,11.333,0,0-70.609-8.248-69.589-86.442,0,0,1.073-64.78,71.702-78.192,0,0,3.211-14.322-8.506-19.451,0,0,74.814-43.256,123.004,35.948,0,0,19.256,58.61,7.466,84.361" fill="#8a3a3b"/>
  <path d="M50.311,748.024c1.429,1.756,4.32,5.227,6.269,6.629,2.012,1.329,4.627,1.947,7.24,2.142v5.227h-30.914v-5.129c1.689-.13,6.397.126,6.397-1.756,0-.874-2.109-3.02-2.762-3.861l-7.921-10.071-6.397,4.418v5.166c0,4.446,0,5.548,6.397,6.104v5.129H.793v-5.129c1.979-.098,4.739-.362,5.909-1.301,1.362-1.036,1.152-3.442,1.152-4.804v-20.069c0-4.385-.079-5.877-7.061-6.169v-5.068h27.828v5.068c-6.397.683-6.397,1.426-6.397,6.169v7.661l12.794-9.449c.813-.614,3.329-2.012,3.329-3.052,0-1.329-2.906-1.329-4.237-1.329h-1.203v-5.068h27.6v5.068c-8.248.423-14.028,4.316-19.775,8.474l-1.817,1.365,11.396,13.636Z" fill="#8a3a3b"/>
  <path d="M117.724,751.954c3.182,3.182,4.369,4.576,10.163,4.938v5.129h-18.899l-17.47-18.346h-4.284v7.21c0,4.251.585,5.645,6.72,5.909l1.104.098v5.129h-29.224v-5.129l.648-.098c6.267-.264,6.365-1.398,6.365-5.881v-20.488c0-4.121.098-5.584-6.007-5.812l-1.006-.065v-5.068h30.654c5.031,0,10.795.032,15.584,1.398,5.651,1.524,9.484,5.097,9.484,9.839,0,6.04-6.072,10.583-13.542,11.656l9.709,9.579ZM90.348,737.668c3.28,0,7.112.098,10.118-.91,2.938-1.101,5.34-2.987,5.34-5.491,0-1.752-1.914-3.536-3.67-4.674-2.207-1.231-5.424-1.459-7.986-1.459-2.209,0-5.131.195-6.267,1.004-.811.52-.648,1.853-.648,2.629v8.901h3.113Z" fill="#8a3a3b"/>
  <path d="M180.882,750.913c2.109,4.028,2.256,5.068,7.86,5.881l.941.098v5.129h-29.647v-5.129c1.752-.195,6.751-.098,6.751-2.048,0-.91-.776-2.467-1.087-3.41l-2.256-4.576h-17.438l-2.272,4.576c-.423.91-.992,2.109-.992,2.926,0,2.239,4.467,2.239,6.397,2.434l.829.098v5.129h-25.133v-5.129c7.173-.557,8.732-3.995,11.169-8.478l15.783-28.933h12.583l16.511,31.433ZM160.813,741.435l-6.072-12.144-6.169,12.144h12.241Z" fill="#8a3a3b"/>
  <path d="M236.249,734.388c-5.361-5.747-11.124-9.254-20.459-9.254-7.015,0-6.592,1.621-6.592,6.364v5.064h2.402c2.242,0,5.149.065,6.365-1.626,1.236-1.524,1.366-3.438,1.691-5.194h6.04v20.264h-6.04c-.943-6.109-1.528-7.633-10.457-7.307v8.088c0,1.199-.081,3.475.943,4.544,1.138,1.199,4.32,1.463,6.104,1.561h.91v5.129h-29.356v-5.129c6.799-.293,7.015-1.723,7.015-6.104v-20.069c0-4.385-.215-5.779-7.015-6.169v-5.068h46.515l7.665,12.798-5.731,2.109Z" fill="#8a3a3b"/>
  <path d="M262.679,726.593c.065-1.166.065-1.496-1.508-1.496-3.036,0-6.285,1.561-8.458,3.121-2.211,1.589-3.735,3.536-5.686,5.974l-5.942-1.853,6.592-12.859h44.487l6.43,12.859-5.912,1.853c-1.851-2.439-3.408-4.385-5.682-5.974-2.158-1.561-5.389-3.121-8.443-3.121-1.557,0-1.557.329-1.494,1.496v24.194c0,1.199-.128,3.572.878,4.544,1.136,1.199,3.993,1.463,5.814,1.561h.941v5.129h-29.647v-5.129h1.006c1.754-.098,4.611-.362,5.749-1.561,1.036-.971.874-3.345.874-4.544v-24.194Z" fill="#8a3a3b"/>
  <path d="M348.244,750.913c2.081,4.028,2.211,5.068,7.828,5.881l.862.098v5.129h-29.567v-5.129c1.752-.195,6.82-.098,6.82-2.048,0-.91-.862-2.467-1.17-3.41l-2.207-4.576h-17.439l-2.305,4.576c-.488.91-.975,2.109-.975,2.926,0,2.239,4.515,2.239,6.446,2.434l.829.098v5.129h-25.134v-5.129c7.146-.557,8.702-3.995,11.104-8.478l15.814-28.933h12.534l16.562,31.433ZM328.114,741.435l-6.023-12.144-6.251,12.144h12.274Z" fill="#8a3a3b"/>
  <path d="M397.604,743.996v-13.278c0-4.414-.097-5.779-7.015-6.169v-5.068h21.788v5.068c-6.933.293-7.177,1.658-7.177,6.169v31.303h-10.063l-25.491-32.924v21.691c0,1.199-.098,3.572.809,4.544,1.17,1.101,4.158,1.431,6.401,1.561v5.129h-21.727v-5.129c2.048-.098,4.804-.362,6.011-1.301,1.362-1.036,1.134-3.442,1.134-4.804v-20.069c0-1.301.195-3.54-.78-4.58-1.134-1.167-4.186-1.459-6.365-1.589v-5.068h23.8l18.675,24.515Z" fill="#8a3a3b"/>
  <path d="M450.081,740.102h26.462v5.162l-1.17.098c-5.649.65-5.227,2.178-5.227,6.011v11.132h-8.897l-1.914-3.568c-2.308,1.04-4.58,2.174-6.722,2.727-2.825.841-6.889,1.427-9.974,1.427-16.753,0-26.137-10.096-26.137-22.337,0-12.729,10.75-22.439,27.665-22.439,4.515,0,10.1,1.199,13.965,2.89l1.203-1.723h5.259l5.032,14.257-5.877,1.557c-3.41-5.194-10.457-10.616-18.573-10.616-10.425,0-12.989,10.258-12.989,16.623,0,6.917,3.182,15.46,13.965,15.46,5.194,0,11.103-3.052,11.103-7.373,0-3.377-3.15-4.125-7.173-4.125v-5.162Z" fill="#8a3a3b"/>
  <path d="M530.35,750.913c2.109,4.028,2.272,5.068,7.889,5.881l.878.098v5.129h-29.58v-5.129c1.703-.195,6.718-.098,6.718-2.048,0-.91-.841-2.467-1.134-3.373l-2.174-4.613h-17.472l-2.255,4.576c-.455.91-.992,2.109-.992,2.926,0,2.239,4.45,2.268,6.365,2.434l.809.098v5.129h-25.032v-5.129c7.145-.557,8.669-3.995,11.071-8.478l15.846-28.933h12.567l16.497,31.433ZM510.248,741.464l-6.007-12.172-6.251,12.172h12.258Z" fill="#8a3a3b"/>
  <path d="M579.71,743.996v-13.278c0-4.385-.098-5.779-6.95-6.137v-5.1h21.723v5.1c-6.95.26-7.129,1.626-7.129,6.137v31.303h-10.083l-25.458-32.924v21.691c0,1.231-.098,3.572.845,4.544,1.053,1.101,4.125,1.431,6.267,1.561v5.129h-21.626v-5.129c1.947-.098,4.771-.362,6.023-1.301,1.317-1.008,1.085-3.41,1.085-4.804v-20.069c0-1.301.163-3.54-.809-4.58-1.154-1.167-4.158-1.459-6.3-1.557v-5.1h23.8l18.61,24.515Z" fill="#8a3a3b"/>
  <path d="M113.731,807.743l11.427-26.564h26.011v5.068c-2.221.061-5.096.256-6.33,1.264-1.396,1.04-1.103,3.508-1.103,4.934v19.972c0,1.301-.293,3.605.776,4.613,1.073,1.069,4.223,1.426,5.96,1.524h.697v5.129h-29.612v-5.129h.683c1.622-.032,4.479-.39,5.808-1.264,1.365-1.04,1.268-3.475,1.268-4.873v-20.915l-13.831,32.18h-9.191l-13.8-32.664v21.496c0,1.203-.13,3.508.876,4.516,1.073,1.069,4.123,1.426,5.814,1.524h.648v5.129h-22.229v-5.129c6.673-.455,6.869-1.654,6.869-6.137v-19.972c0-4.479-.098-5.779-6.869-6.198v-5.068h25.04l11.089,26.564Z" fill="#8a3a3b"/>
  <path d="M205.723,812.645c2.081,4.06,2.193,5.064,7.86,5.877l.878.032v5.129h-29.618v-5.129c1.786-.13,6.755-.032,6.755-1.983,0-.874-.78-2.5-1.103-3.341l-2.176-4.645h-17.503l-2.288,4.645c-.439.813-1.022,2.077-1.022,2.89,0,2.174,4.546,2.174,6.476,2.402l.813.032v5.129h-25.182v-5.129c7.21-.52,8.767-3.959,11.138-8.442l15.814-28.933h12.613l16.546,31.465ZM185.609,803.131l-6.072-12.111-6.222,12.111h12.294Z" fill="#8a3a3b"/>
  <path d="M256.867,823.683h-44.292v-5.129c6.69-.455,6.755-1.524,6.755-6.04v-20.069c0-4.544,0-5.617-6.755-6.198v-5.068h28.624v5.068c-2.29.159-5.117.419-6.43,1.329-1.382.975-1.024,3.442-1.024,4.869v20.784c0,3.536-.581,4.706,5.003,4.706,9.352,0,16.659-5.292,20.943-11.363l5.584,2.272-8.409,14.838Z" fill="#8a3a3b"/>
  <path d="M316.23,812.645c2.142,4.06,2.268,5.064,7.905,5.877l.894.032v5.129h-29.585v-5.129c1.719-.13,6.723-.032,6.723-1.983,0-.874-.748-2.5-1.138-3.341l-2.24-4.645h-17.436l-2.276,4.645c-.356.813-1.004,2.077-1.004,2.89,0,2.174,4.544,2.174,6.525,2.402l.811.032v5.129h-25.166v-5.129c7.145-.52,8.669-3.959,11.138-8.442l15.751-28.933h12.661l16.436,31.465ZM296.193,803.131l-6.009-12.111-6.33,12.111h12.339Z" fill="#8a3a3b"/>
  <path d="M352.272,812.417c0,1.301-.146,3.605.845,4.613,1.134,1.069,4.19,1.492,5.942,1.492l.727.032v5.129h-29.287v-5.129c2.191-.032,5.048-.39,6.251-1.264,1.268-1.04,1.17-3.442,1.17-4.776v-6.267l-10.62-12.859c-3.117-3.735-5.357-6.69-11.595-7.141v-5.068h30.949v5.068c-1.427.159-6.3-.134-6.3,1.589l.874,1.622.894,1.235,6.19,8.669,5.743-7.47c.683-.874,2.764-3.243,2.764-4.284,0-1.496-4.58-1.301-5.848-1.362v-5.068h24.812v5.068c-7.307.451-9.807,3.211-13.477,7.596l-10.034,11.884v6.69Z" fill="#8a3a3b"/>
  <path d="M412.475,781.18h4.841l5.422,12.632-5.909,1.691-.683-.78c-1.866-2.048-4.158-4.385-6.852-5.747-2.922-1.528-6.426-2.568-9.998-2.568-3.637,0-8.901,1.04-8.901,4.45,0,3.117,6.072,3.8,8.901,4.353l3.016.451,5.422,1.17c4.06.845,9.031,1.756,12.632,3.508,3.833,1.947,5.816,5.519,5.816,9.092,0,9.807-11.091,15.326-22.894,15.326-4.739,0-10.847-1.101-14.546-3.41l-1.17,2.857h-4.837l-6.791-15.749,6.169-1.524c4.288,6.3,11.319,11.526,21.077,11.526,4.515,0,10.425-1.398,10.425-5.487,0-3.442-5.377-4.06-8.734-4.71l-9.157-1.719c-3.995-.748-9.226-1.687-12.538-3.507-3.828-2.142-5.617-5.584-5.617-9.189,0-8.702,10.23-13.766,20.784-13.766,4.418,0,9.38,1.134,13.136,3.113l.988-2.012Z" fill="#8a3a3b"/>
  <path d="M458.734,823.683h-29.177v-5.129c2.012-.032,4.869-.39,6.104-1.264,1.362-1.04,1.101-3.442,1.101-4.776v-20.069c0-1.329.134-3.568-.858-4.609-1.057-1.138-4.109-1.431-5.8-1.528l-.549-.061v-5.068h29.177v5.129c-2.288.098-5.117.358-6.434,1.268-1.378.975-1.085,3.442-1.085,4.869v20.069c0,1.301-.293,3.508.748,4.516,1.105,1.069,4.219,1.492,6.039,1.524h.732v5.129Z" fill="#8a3a3b"/>
  <path d="M513.694,812.645c2.142,4.06,2.268,5.064,7.889,5.877l.89.032v5.162l-29.563-.033v-5.129c1.687-.13,6.783-.032,6.783-1.983,0-.874-.858-2.463-1.199-3.341l-2.207-4.645h-17.488l-2.256,4.645c-.39.813-.976,2.077-.976,2.89,0,2.174,4.434,2.174,6.397,2.402l.878.032v5.129h-25.166v-5.129c7.206-.52,8.734-3.959,11.136-8.442l15.786-28.933h12.562l16.533,31.465ZM493.621,803.131l-6.072-12.111-6.23,12.111h12.302Z" fill="#8a3a3b"/>
</svg>